<?xml version="1.0" encoding="UTF-8" standalone="no"?>
<svg
   xmlns:dc="http://purl.org/dc/elements/1.1/"
   xmlns:cc="http://creativecommons.org/ns#"
   xmlns:rdf="http://www.w3.org/1999/02/22-rdf-syntax-ns#"
   xmlns:svg="http://www.w3.org/2000/svg"
   xmlns="http://www.w3.org/2000/svg"
   width="900"
   height="300"
   version="1.0"
   style="fill:none; stroke:black; stroke-width:2px; padding:30px">
  <!-- ROW 1 -->
  <rect x="0" y="0" width="60" height="60" rx="4" ry="4" title="escape"/>
  <rect x="60" y="0" width="60" height="60" rx="4" ry="4" title="1" class='red'/>
  <rect x="120" y="0" width="60" height="60" rx="4" ry="4" title="2"/>
  <rect x="180" y="0" width="60" height="60" rx="4" ry="4" title="3"/>
  <rect x="240" y="0" width="60" height="60" rx="4" ry="4" title="4"/>
  <rect x="300" y="0" width="60" height="60" rx="4" ry="4" title="5"/>
  <rect x="360" y="0" width="60" height="60" rx="4" ry="4" title="6"/>
  <rect x="420" y="0" width="60" height="60" rx="4" ry="4" title="7"/>
  <rect x="480" y="0" width="60" height="60" rx="4" ry="4" title="8"/>
  <rect x="540" y="0" width="60" height="60" rx="4" ry="4" title="9"/>
  <rect x="600" y="0" width="60" height="60" rx="4" ry="4" title="0"/>
  <rect x="660" y="0" width="60" height="60" rx="4" ry="4" title="+"/>
  <rect x="720" y="0" width="60" height="60" rx="4" ry="4" title="-"/>
  <rect x="780" y="0" width="120" height="60" rx="4" ry="4" title="-"/>
  <!-- ROW 2 -->
  <rect x="0" y="60" width="90" height="60" rx="4" ry="4" title="tab"/>
  <rect x="90" y="60" width="60" height="60" rx="4" ry="4" title="q"/>
  <rect x="150" y="60" width="60" height="60" rx="4" ry="4" title="w"/>
  <rect x="210" y="60" width="60" height="60" rx="4" ry="4" title="e"/>
  <rect x="270" y="60" width="60" height="60" rx="4" ry="4" title="r"/>
  <rect x="330" y="60" width="60" height="60" rx="4" ry="4" title="t"/>
  <rect x="390" y="60" width="60" height="60" rx="4" ry="4" title="y"/>
  <rect x="450" y="60" width="60" height="60" rx="4" ry="4" title="u"/>
  <rect x="510" y="60" width="60" height="60" rx="4" ry="4" title="i"/>
  <rect x="570" y="60" width="60" height="60" rx="4" ry="4" title="o"/>
  <rect x="630" y="60" width="60" height="60" rx="4" ry="4" title="p"/>
  <rect x="690" y="60" width="60" height="60" rx="4" ry="4" title="["/>
  <rect x="750" y="60" width="60" height="60" rx="4" ry="4" title="]"/>
  <rect x="810" y="60" width="90" height="60" rx="4" ry="4" title="¥"/>
  <!-- ROW 3 -->
  <rect x="0" y="120" width="105" height="60" rx="4" ry="4" title="capslock"/>
  <rect x="105" y="120" width="60" height="60" rx="4" ry="4" title="s"/>
  <rect x="165" y="120" width="60" height="60" rx="4" ry="4" title="d"/>
  <rect x="225" y="120" width="60" height="60" rx="4" ry="4" title="f"/>
  <rect x="285" y="120" width="60" height="60" rx="4" ry="4" title="g"/>
  <rect x="345" y="120" width="60" height="60" rx="4" ry="4" title="h"/>
  <rect x="405" y="120" width="60" height="60" rx="4" ry="4" title="j"/>
  <rect x="465" y="120" width="60" height="60" rx="4" ry="4" title="k"/>
  <rect x="525" y="120" width="60" height="60" rx="4" ry="4" title="l"/>
  <rect x="585" y="120" width="60" height="60" rx="4" ry="4" title=";"/>
  <rect x="645" y="120" width="60" height="60" rx="4" ry="4" title="'"/>
  <rect x="705" y="120"  width="60" height="60" rx="4" ry="4" title="a"/>
  <rect x="765" y="120" width="135" height="60" rx="4" ry="4" title="enter"/>
  <!-- ROW 4 -->
  <rect x="0" y="180" width="135" height="60" rx="4" ry="4" title="shift"/>
  <rect x="135"  y="180" width="60" height="60" rx="4" ry="4" title="z"/>
  <rect x="195" y="180" width="60" height="60" rx="4" ry="4" title="x"/>
  <rect x="255" y="180" width="60" height="60" rx="4" ry="4" title="c"/>
  <rect x="315" y="180" width="60" height="60" rx="4" ry="4" title="v"/>
  <rect x="375" y="180" width="60" height="60" rx="4" ry="4" title="b"/>
  <rect x="435" y="180" width="60" height="60" rx="4" ry="4" title="n"/>
  <rect x="495" y="180" width="60" height="60" rx="4" ry="4" title="m"/>
  <rect x="555" y="180" width="60" height="60" rx="4" ry="4" title=","/>
  <rect x="615" y="180" width="60" height="60" rx="4" ry="4" title="."/>
  <rect x="675" y="180" width="60" height="60" rx="4" ry="4" title="/"/>
  <rect x="735" y="180" width="165" height="60" rx="4" ry="4" title="capslock"/>
  <!-- ROW 5 -->
  <rect x="0" y="240" width="90" height="60" rx="4" ry="4" title="ctrl"/>
  <rect x="90" y="240" width="90" height="60" rx="4" ry="4" title="cmd"/>
  <rect x="180" y="240" width="90" height="60" rx="4" ry="4" title="alt"/>
  <rect x="270" y="240" width="270" height="60" rx="4" ry="4" title="space"/>
  <rect x="810" y="240" width="90" height="60" rx="4" ry="4" title="ctrl"/>
  <rect x="720" y="240" width="90" height="60" rx="4" ry="4" title="pn"/>
  <rect x="630" y="240" width="90" height="60" rx="4" ry="4" title="fn"/>
  <rect x="540" y="240" width="90" height="60" rx="4" ry="4" title="alt"/>
</svg>
